<svg width="48" height="48" viewBox="0 0 48 48" xmlns="http://www.w3.org/2000/svg">
  <!-- Gear ring (12 teeth) -->
  <defs>
    <circle id="c" cx="24" cy="24" r="11"/>
  </defs>
  <g transform="translate(24 24)">
    <g fill="#ffffff">
      <path d="M0,-22 l3,0 1.8,5.3 4.3,1.1 3.7,-3.7 2.6,1.5 -1.1,5 3.6,3 -3.6,3 1.1,5 -2.6,1.5 -3.7,-3.7 -4.3,1.1 -1.8,5.3 -3,0 -1.8,-5.3 -4.3,-1.1 -3.7,3.7 -2.6,-1.5 1.1,-5 -3.6,-3 3.6,-3 -1.1,-5 2.6,-1.5 3.7,3.7 4.3,-1.1 1.8,-5.3z"/>
    </g>
  </g>
  <!-- Inner cut -->
  <circle cx="24" cy="24" r="14" fill="#0e1525"/>
  <!-- Inner disc -->
  <circle cx="24" cy="24" r="10.5" fill="#a61f1f"/>
  <!-- Green wedge at ~225deg -->
  <path d="M24 24 L18 26 A10.5 10.5 0 0 1 20 18 Z" fill="#4CAF50"/>
</svg>

